<svg width="480" height="193" viewBox="0 0 480 193" fill="none" xmlns="http://www.w3.org/2000/svg">
<path d="M253.137 36.1894C238.73 29.8274 223.656 35.7526 213.413 47.0428C206.694 54.4483 203.834 66.3382 213.351 73.2859C231.892 86.8207 258.196 73.129 264.627 52.6501C268.34 40.8294 261.35 31.2365 249.243 31.2797" stroke="black" stroke-width="5" stroke-miterlimit="10" stroke-linecap="round" stroke-linejoin="round"/>
<path d="M136.551 36.7205C146.368 45.8722 155.466 56.6277 155.191 70.8118C154.823 89.7088 132.336 96.0377 118.331 88.0129C96.7954 75.6724 103.696 46.6874 122.969 35.6632C131.822 30.5997 143.241 33.7468 151.984 37.5337" stroke="black" stroke-width="5" stroke-miterlimit="10" stroke-linecap="round" stroke-linejoin="round"/>
<path d="M168.973 129.351C156.992 115.881 144.067 103.183 130.304 91.5225C129.517 112.918 128.386 134.295 128.03 155.704" stroke="black" stroke-width="5" stroke-miterlimit="10" stroke-linecap="round" stroke-linejoin="round"/>
<path d="M198.081 110.11C209.02 97.3601 219.439 84.0031 230.908 71.7392C230.209 99.8959 228.257 127.833 226.371 155.925" stroke="black" stroke-width="5" stroke-miterlimit="10" stroke-linecap="round" stroke-linejoin="round"/>
<path d="M134.685 48.7664C131.771 51.1304 126.104 58.3103 132.831 60.1159C139.928 62.0206 142.996 46.0789 134.685 48.7664V48.7664Z" stroke="black" stroke-width="5" stroke-miterlimit="10" stroke-linecap="round" stroke-linejoin="round"/>
<path d="M227.545 45.7764C225.668 47.1865 220.032 52.5227 222.004 55.3543C224.809 59.3831 234.997 48.8274 227.545 45.7764V45.7764Z" stroke="black" stroke-width="5" stroke-miterlimit="10" stroke-linecap="round" stroke-linejoin="round"/>
<path d="M358.582 175.707C382.732 161.876 404.667 145.48 427.92 130.293C444.066 119.748 461.278 111.086 477.296 100.367C463.809 75.6982 443.004 63.0013 420.513 47.6048C401.122 34.3304 382.654 20.0511 362.64 7.67761" stroke="black" stroke-width="5" stroke-miterlimit="10" stroke-linecap="round" stroke-linejoin="round"/>
<path d="M164.605 132.412C168.107 120.424 167.373 108.278 168.694 95.9912" stroke="black" stroke-width="3" stroke-miterlimit="10" stroke-linecap="round" stroke-linejoin="round"/>
<path d="M159.369 102.412C164.501 104.328 166.914 101.279 171.944 101.447C173.204 101.489 177.52 102.452 178.617 101.459C179.922 100.277 179.769 96.7082 179.777 95.1343C179.8 90.1416 179.515 85.1565 179.143 80.1813C179.068 79.1705 179.397 76.0249 178.813 75.1797C176.858 72.3479 171.462 75.8502 169.275 76.5282C166.674 77.3347 158.739 78.2019 157.977 81.1971C156.821 85.7383 157.841 91.9363 157.71 96.6907C157.689 97.4511 157.32 101.698 157.977 101.975C158.91 102.369 159.67 100.863 160.516 100.307" stroke="black" stroke-width="3" stroke-miterlimit="10" stroke-linecap="round" stroke-linejoin="round"/>
<path d="M169.142 99.2543C168.381 104.664 168.721 110.187 168.416 115.638C168.323 117.294 168.587 109.004 168.496 110.66C168.348 113.371 168.246 116.133 168.375 118.848C168.393 119.218 168.395 118.108 168.4 117.737C168.413 116.74 168.415 115.742 168.427 114.744C168.435 114.067 168.42 112.037 168.461 112.713C168.631 115.56 168.405 118.472 168.347 121.322C168.328 122.247 168.309 124.068 168.309 124.9C168.309 125.392 168.285 126.864 168.324 126.374C168.432 125.035 168.142 123.654 168.442 122.344C168.549 121.877 168.444 123.302 168.444 123.781" stroke="black" stroke-width="3" stroke-miterlimit="10" stroke-linecap="round" stroke-linejoin="round"/>
<path d="M131.739 75.5979C135.972 74.2281 139.554 75.9393 143.406 75.4656C147.629 74.9464 151.473 72.4663 155.848 72.0715" stroke="black" stroke-width="3" stroke-miterlimit="10" stroke-linecap="round" stroke-linejoin="round"/>
<path d="M213.27 68.7278C220.122 70.4515 224.572 67.3879 228.235 62.6224" stroke="black" stroke-width="3" stroke-miterlimit="10" stroke-linecap="round" stroke-linejoin="round"/>
<path d="M202.55 105.675C202.89 105.412 203.231 105.149 203.572 104.886" stroke="black" stroke-width="3" stroke-miterlimit="10" stroke-linecap="round" stroke-linejoin="round"/>
<path d="M204.544 102.412C198.194 112.882 190.127 122.141 184.037 132.735C182.556 135.31 180.915 137.759 179.274 140.233C179.018 140.619 177.447 142.429 177.514 142.831C177.79 144.492 184.863 143.296 185.901 143.102C191.261 142.097 195.038 137.879 197.481 133.242C198.006 132.246 199.779 129.45 199.498 128.324C199.076 126.632 194.691 124.159 193.24 123.424C188.847 121.199 195.441 123.566 191.032 121.374" stroke="black" stroke-width="3" stroke-miterlimit="10" stroke-linecap="round" stroke-linejoin="round"/>
<path d="M249.243 31.2797C261.35 31.2365 268.34 40.8294 264.627 52.6501C258.196 73.129 231.892 86.8207 213.351 73.2859C203.834 66.3382 206.694 54.4483 213.413 47.0428C223.656 35.7526 238.73 29.8274 253.137 36.1894" stroke="black" stroke-miterlimit="10" stroke-linecap="round" stroke-linejoin="round"/>
<path d="M118.458 11.7108C94.907 26.5396 73.6777 43.8392 51.0806 59.9856C35.39 71.197 18.5552 80.572 3 91.9519C17.5076 116.035 38.825 127.85 61.9408 142.292C81.8703 154.743 100.92 168.237 121.434 179.762" stroke="black" stroke-width="5" stroke-miterlimit="10" stroke-linecap="round" stroke-linejoin="round"/>
<path d="M341.54 3C331.867 21.895 323.671 41.7513 313.552 60.3676C289.775 104.112 262.998 146.165 238.491 189.516" stroke="black" stroke-width="5" stroke-miterlimit="10" stroke-linecap="round" stroke-linejoin="round"/>
</svg>